<svg id="Layer_1" enable-background="new 0 0 490.656 490.656" viewBox="0 0 490.656 490.656" xmlns="http://www.w3.org/2000/svg"><g><g><g><path fill="#4bbf73" d="m463.44 406.453-213.333-106.666c-3.008-1.493-6.549-1.493-9.536 0l-213.334 106.666c-3.627 1.813-5.909 5.504-5.909 9.536v64c0 3.691 1.92 7.125 5.056 9.067 3.136 1.941 7.061 2.112 10.368.469l208.555-104.277 208.555 104.277c1.536.747 3.157 1.131 4.8 1.131 1.941 0 3.904-.533 5.611-1.6 3.136-1.941 5.056-5.376 5.056-9.067v-64c-.001-4.032-2.284-7.722-5.889-9.536z"/><path fill="#4bbf73" d="m463.44 107.787-213.333-106.667c-3.008-1.493-6.549-1.493-9.536 0l-213.334 106.667c-3.627 1.813-5.909 5.504-5.909 9.536v64c0 3.691 1.92 7.125 5.056 9.067 3.136 1.941 7.061 2.091 10.368.469l208.555-104.278 208.555 104.277c1.515.747 3.136 1.131 4.779 1.131 1.941 0 3.904-.533 5.611-1.6 3.157-1.941 5.077-5.376 5.077-9.067v-64c-.001-4.031-2.284-7.722-5.889-9.535z"/><path fill="#4bbf73" d="m463.44 257.12-213.333-106.667c-3.008-1.493-6.549-1.493-9.536 0l-213.334 106.667c-3.627 1.813-5.909 5.504-5.909 9.536v64c0 3.691 1.92 7.125 5.056 9.067 3.136 1.941 7.061 2.091 10.368.469l208.555-104.277 208.555 104.277c1.515.747 3.136 1.131 4.779 1.131 1.941 0 3.904-.533 5.611-1.6 3.157-1.941 5.077-5.376 5.077-9.067v-64c-.001-4.032-2.284-7.723-5.889-9.536z"/></g></g></g><g/><g/><g/><g/><g/><g/><g/><g/><g/><g/><g/><g/><g/><g/><g/></svg>
