<?xml version="1.0" encoding="iso-8859-1"?>
<!-- Generator: Adobe Illustrator 19.0.0, SVG Export Plug-In . SVG Version: 6.00 Build 0)  -->
<svg version="1.1" id="Layer_1" xmlns="http://www.w3.org/2000/svg" xmlns:xlink="http://www.w3.org/1999/xlink" x="0px" y="0px"
	 viewBox="0 0 280.028 280.028" style="enable-background:new 0 0 280.028 280.028;" xml:space="preserve">
<g>
	<path fill="#d9534f" d="M78.749,113.787h35.135V78.749c0-4.83,3.912-8.751,8.742-8.751h34.968
		c4.822,0,8.733,3.92,8.733,8.751v35.03h34.951c4.839,0,8.751,3.912,8.751,8.751v35.012c0,4.848-3.912,8.768-8.751,8.768h-34.951
		v34.933c0,4.839-3.912,8.751-8.733,8.751h-34.968c-4.83,0-8.742-3.912-8.742-8.751V166.31H78.749c-4.839,0-8.76-3.92-8.76-8.768
		V122.53C69.989,117.699,73.91,113.787,78.749,113.787z"/>
</g>
<g>
</g>
<g>
</g>
<g>
</g>
<g>
</g>
<g>
</g>
<g>
</g>
<g>
</g>
<g>
</g>
<g>
</g>
<g>
</g>
<g>
</g>
<g>
</g>
<g>
</g>
<g>
</g>
<g>
</g>
</svg>
